<?xml version="1.0" encoding="UTF-8" standalone="no"?>
<!-- Created with Inkscape (http://www.inkscape.org/) -->

<svg
   xmlns:dc="http://purl.org/dc/elements/1.1/"
   xmlns:cc="http://creativecommons.org/ns#"
   xmlns:rdf="http://www.w3.org/1999/02/22-rdf-syntax-ns#"
   xmlns:svg="http://www.w3.org/2000/svg"
   xmlns="http://www.w3.org/2000/svg"
   xmlns:sodipodi="http://sodipodi.sourceforge.net/DTD/sodipodi-0.dtd"
   xmlns:inkscape="http://www.inkscape.org/namespaces/inkscape"
   width="210mm"
   height="297mm"
   viewBox="0 0 210 297"
   version="1.1"
   id="svg8"
   inkscape:version="0.92.3 (2405546, 2018-03-11)"
   sodipodi:docname="borda.svg">
  <defs
     id="defs2" />
  <sodipodi:namedview
     id="base"
     pagecolor="#ffffff"
     bordercolor="#666666"
     borderopacity="1.0"
     inkscape:pageopacity="0.0"
     inkscape:pageshadow="2"
     inkscape:zoom="0.98994949"
     inkscape:cx="468.07692"
     inkscape:cy="1149.876"
     inkscape:document-units="mm"
     inkscape:current-layer="layer1"
     showgrid="false"
     inkscape:window-width="1440"
     inkscape:window-height="837"
     inkscape:window-x="1592"
     inkscape:window-y="-8"
     inkscape:window-maximized="1" />
  <metadata
     id="metadata5">
    <rdf:RDF>
      <cc:Work
         rdf:about="">
        <dc:format>image/svg+xml</dc:format>
        <dc:type
           rdf:resource="http://purl.org/dc/dcmitype/StillImage" />
        <dc:title></dc:title>
      </cc:Work>
    </rdf:RDF>
  </metadata>
  <g
     inkscape:label="Camada 1"
     inkscape:groupmode="layer"
     id="layer1">
    <path
       style="fill:#000000;stroke-width:0.17638887"
       d="m 6.9881369,0.29192676 -0.39068,1.23506634 c -0.4173,1.3195241 -1.10253,2.8745972 -1.60869,3.6509379 -0.30603,0.4693947 -0.30316,0.4811897 0.17829,0.8598954 0.40349,0.3173897 0.47941,0.5010287 0.43925,1.0572984 -0.032,0.4424437 0.0546,0.7867697 0.2527,1.0056234 0.16571,0.183107 0.30127,0.4647747 0.30127,0.6258007 0,0.3847517 -0.5355,1.0008234 -0.87695,1.0087234 -0.14821,0.0034 -0.45899,0.11099 -0.6904,0.239262 l -0.42064,0.2335777 0.50901,0.126607 c 0.27992,0.06988 0.76681,0.286214 1.0821,0.480591 0.53275,0.328434 0.57361,0.421283 0.57361,1.309481 0,0.525663 -0.0432,0.955497 -0.0956,0.955497 -0.0524,0 -0.33709,-0.178593 -0.63252,-0.396875 -0.67951,-0.502072 -1.95877,-0.521302 -2.69286,-0.04031 -1.2843401,0.841531 -1.2967401,3.010916 -0.0191,3.33158 1.06175,0.266481 1.57522,-0.9164 0.76998,-1.773535 l -0.37672,-0.40101 0.46509,-0.211873 c 0.61892,-0.282002 1.29652,0.02302 1.45521,0.655257 0.0649,0.258417 0.026,1.114429 -0.0858,1.90221 -0.19979,1.40744 -0.76905,6.156055 -1.09192,9.105386 -0.0903,0.824619 -0.23884,2.015243 -0.33022,2.645833 -1.54846,10.685536 -2.84707008,22.619139 -3.39669009,31.220833 -0.43482997,6.805258 -0.26065997,25.014593 0.29662001,31.044613 0.59868998,6.477984 1.52024008,14.586053 2.04536008,17.991593 0.27404,1.77724 0.29898,1.95755 0.42064,3.08663 0.0627,0.58208 0.2655,2.01083 0.45062,3.175 0.18512,1.16416 0.41332,2.83104 0.50746,3.70416 0.0941,0.87313 0.33355,2.85732 0.53175,4.40956 0.19821,1.55222 0.39184,3.17975 0.43047,3.61631 0.0386,0.43656 0.1302,1.2475 0.2036,1.80248 0.16529,1.24977 -0.16164,1.90169 -0.95446,1.90169 -0.69942,0 -1.04824,-0.43739 -0.55811,-0.6997 0.41309,-0.22107 0.509,-1.2015 0.15245,-1.55805 -0.37389,-0.37388 -1.14612,-0.24733 -1.53944,0.2527 -0.7074601,0.89939 -0.2632601,2.38981 0.89038,2.98638 0.75283,0.3893 1.97206,0.25425 2.54248,-0.28163 0.33136,-0.3113 0.44626,-0.34531 0.51935,-0.15297 0.0516,0.1358 0.0734,29.61452 0.0486,65.50815 l -0.045,65.26114 -0.92345,0.44338 c -0.5079,0.24404 -0.92465,0.49724 -0.92605,0.56224 -10e-4,0.065 0.22905,0.16931 0.51212,0.23151 0.74525,0.16368 1.30372,0.69985 1.16944,1.12293 -0.0605,0.1907 -0.21528,0.38685 -0.34365,0.43613 -0.16707,0.0641 -0.20935,0.33962 -0.14883,0.96946 0.0753,0.78343 0.0339,0.92411 -0.37724,1.28159 -0.25398,0.22082 -0.46147,0.49979 -0.46147,0.6196 0,0.11975 0.40711,0.5416 0.90485,0.93792 v 0 c 0.49775,0.39632 1.08235,0.72038 1.29915,0.72038 0.40167,0 2.20555,-1.33892 2.20555,-1.63708 0,-0.0902 -0.20516,-0.32534 -0.45579,-0.52248 -0.40199,-0.31617 -0.44856,-0.46476 -0.39687,-1.26039 0.0494,-0.76067 -0.007,-0.96803 -0.36277,-1.32343 l -0.42168,-0.42118 0.42168,-0.32401 c 0.32322,-0.24847 0.7363,-0.32514 1.76992,-0.32813 1.5824501,-0.005 1.5621801,-0.0288 1.5621801,1.86244 0,1.18219 0.0332,1.30843 0.345711,1.30843 0.31339,0 0.35071,-0.14531 0.39688,-1.54358 l 0.0512,-1.54305 1.66088,-0.0512 c 1.20988,-0.0372 1.70044,0.0105 1.80557,0.1762 0.0794,0.12513 0.14536,0.84289 0.14676,1.59475 l 0.003,1.36684 h 0.61754 0.61753 l 0.003,-1.36684 c 0.001,-0.75186 0.0674,-1.46962 0.146761,-1.59475 0.105139,-0.16557 0.59569,-0.21341 1.80557,-0.1762 l 1.66089,0.0512 0.0512,1.54305 c 0.0462,1.39827 0.0835,1.54358 0.39687,1.54358 0.31363,0 0.3458,-0.1274 0.3483,-1.36684 0.002,-0.75185 0.0679,-1.46962 0.14728,-1.59475 0.10513,-0.16557 0.59517,-0.21341 1.80506,-0.17621 l 1.66088,0.0512 0.0512,1.54305 0.0512,1.54357 h 0.60358 0.60358 l 0.0506,-1.54357 0.0512,-1.54305 1.660879,-0.0512 c 1.209879,-0.0372 1.70044,0.0105 1.80557,0.17621 0.0794,0.12513 0.145359,0.8429 0.146769,1.59475 0.0021,1.23944 0.0352,1.36684 0.348811,1.36684 0.313381,0 0.3507,-0.14531 0.39688,-1.54358 l 0.0506,-1.54305 1.66088,-0.0512 c 1.209881,-0.0372 1.70044,0.0105 1.805572,0.1762 0.0794,0.12513 0.14536,0.84289 0.146759,1.59475 l 0.003,1.36684 h 0.610299 0.607721 l 0.0512,-1.54358 0.0506,-1.54305 1.719792,-0.0506 1.719789,-0.0506 v 1.31515 c 0,1.54406 0.0965,1.87275 0.548291,1.87275 0.29936,0 0.33383,-0.14383 0.33383,-1.38958 0,-0.97635 0.0734,-1.45061 0.24701,-1.59473 0.158199,-0.13132 0.809029,-0.1863 1.80816,-0.15349 l 1.560631,0.0512 0.0512,1.54305 0.0512,1.54358 h 0.603581 0.603578 l 0.0507,-1.54358 0.0512,-1.54305 1.560618,-0.0512 c 0.99913,-0.0328 1.64996,0.0222 1.80816,0.15349 0.173662,0.14412 0.247012,0.61838 0.247012,1.59473 0,1.26274 0.0319,1.38958 0.346229,1.38958 0.313391,0 0.35071,-0.14531 0.39688,-1.54358 l 0.0506,-1.54305 h 1.764241 1.76371 l 0.0507,1.52495 0.0506,1.52448 0.60461,0.0708 0.60462,0.0708 0.0501,-1.59576 0.0506,-1.59525 1.660879,-0.0512 c 1.209882,-0.0372 1.699922,0.0105 1.805062,0.17621 0.0794,0.12513 0.14587,0.83416 0.147269,1.57562 0.0021,0.99196 0.0681,1.37354 0.250119,1.44334 0.395462,0.15177 0.457851,-0.0395 0.457851,-1.39529 0,-1.89179 -0.0551,-1.83708 1.852081,-1.83708 1.91009,0 1.852088,-0.0584 1.852088,1.86656 v 1.30845 h 0.610812 0.610298 l 0.0512,-1.54359 0.0506,-1.54305 h 1.764239 1.763709 l 0.0512,1.54305 c 0.0462,1.39828 0.0835,1.54359 0.39688,1.54359 0.314352,0 0.34571,-0.12684 0.34571,-1.3896 0,-0.97634 0.0734,-1.45061 0.24702,-1.59472 0.1582,-0.13132 0.80903,-0.1863 1.808152,-0.15349 l 1.560629,0.0512 0.0512,1.54305 0.0512,1.54359 h 0.603581 0.603581 l 0.0506,-1.54359 0.0512,-1.54305 1.660882,-0.0512 c 1.209879,-0.0372 1.70044,0.0105 1.80557,0.17621 0.0794,0.12513 0.145359,0.84289 0.146759,1.59475 0.0021,1.23945 0.0352,1.36685 0.348821,1.36685 0.313378,0 0.350708,-0.14531 0.39687,-1.54359 l 0.0507,-1.54305 1.66139,-0.0512 c 1.209889,-0.0372 1.699929,0.0105 1.805059,0.17621 0.0794,0.12513 0.145359,0.83707 0.146761,1.58182 0.0021,1.14549 0.0505,1.36409 0.311608,1.42008 0.804871,0.17251 0.910582,-0.003 0.963771,-1.60249 l 0.0506,-1.52444 1.560632,-0.0512 c 0.99913,-0.0328 1.64996,0.0222 1.80816,0.15349 0.173648,0.14411 0.247009,0.61838 0.247009,1.59472 0,0.80879 0.0736,1.38961 0.176221,1.38961 0.097,0 0.23626,2e-5 0.30902,0.003 0.0728,0 0.17163,-0.69368 0.220139,-1.54356 l 0.0884,-1.54512 h 1.76372 1.764231 l 0.0506,1.54358 0.0512,1.54304 h 0.60358 0.603592 l 0.0512,-1.54304 0.0506,-1.54358 1.66139,-0.0512 c 1.20989,-0.0372 1.699922,0.011 1.805059,0.17675 0.0793,0.1251 0.145762,0.83773 0.146762,1.58388 0.0011,0.74611 0.0663,1.39551 0.143658,1.44332 0.373481,0.23082 0.552601,-0.2635 0.601001,-1.65882 l 0.0522,-1.49396 1.660879,-0.0512 c 1.209882,-0.0372 1.699932,0.011 1.805062,0.17673 0.0793,0.1251 0.14628,0.83596 0.14728,1.57975 0.003,1.41897 0.0852,1.56091 0.827343,1.41904 0.37023,-0.0708 0.40022,-0.17877 0.44752,-1.60043 l 0.0506,-1.52392 1.41077,-0.0522 c 2.24825,-0.0834 2.20503,-0.11499 2.20503,1.6242 0,1.10444 0.0626,1.50097 0.24753,1.57199 0.39732,0.15245 0.45795,-0.0393 0.46095,-1.45367 0.001,-0.73568 0.0679,-1.43966 0.14728,-1.56476 0.10514,-0.1656 0.59518,-0.21393 1.80506,-0.17673 l 1.66088,0.0512 0.0512,1.54359 c 0.0498,1.50835 0.061,1.54354 0.48524,1.54354 0.23876,0 0.49357,0 0.56637,0.003 0.0728,0 0.17165,-0.69318 0.22015,-1.54306 l 0.0884,-1.54514 1.56063,-0.0511 c 0.99913,-0.0328 1.64996,0.0222 1.80816,0.15346 0.17364,0.14412 0.24701,0.61838 0.24701,1.59475 0,1.26271 0.0319,1.38956 0.34624,1.38956 0.31338,0 0.35067,-0.14531 0.39687,-1.54355 l 0.0506,-1.54308 h 1.76424 1.76371 l 0.0512,1.54308 c 0.0498,1.50836 0.0605,1.54355 0.48473,1.54355 0.23876,0 0.49357,7e-5 0.56637,0.003 0.0728,0 0.17216,-0.69368 0.22066,-1.54356 l 0.0884,-1.54514 1.66088,-0.0511 c 1.20988,-0.0372 1.69992,0.011 1.80505,0.17672 0.0793,0.12512 0.14628,0.84235 0.14728,1.59421 0.002,0.79195 0.0766,1.36683 0.1788,1.36683 0.097,0 0.23623,8e-5 0.30903,0.003 0.0728,0 0.17164,-0.69318 0.22014,-1.54306 l 0.0884,-1.54565 h 1.76371 1.76424 l 0.0506,1.54358 0.0512,1.54357 h 0.60358 0.60358 l 0.0512,-1.54357 0.0512,-1.54358 1.56063,-0.0511 c 0.99913,-0.0328 1.64997,0.0227 1.80816,0.15399 0.17365,0.14412 0.24701,0.61838 0.24701,1.59472 0,1.26275 0.0314,1.38959 0.34571,1.38959 0.31338,0 0.35068,-0.14531 0.39688,-1.54358 l 0.0512,-1.54305 h 1.76372 1.76423 l 0.0506,1.54305 0.0512,1.54358 h 0.60358 0.60358 l 0.0512,-1.54358 0.0512,-1.54305 1.71979,-0.0506 1.7198,-0.0506 v 1.40507 c 0,1.06542 0.0695,1.47463 0.28835,1.69344 0.44255,0.44254 0.57345,0.13147 0.62994,-1.49913 l 0.0517,-1.49863 1.66088,-0.0506 c 1.20988,-0.0372 1.70044,0.0105 1.80558,0.17622 0.0794,0.12512 0.14577,0.84235 0.14676,1.59422 l 0.003,1.36735 h 0.6103 0.61081 l 0.0506,-1.54357 0.0512,-1.54358 1.56063,-0.0511 c 0.99912,-0.0328 1.64995,0.0227 1.80815,0.15399 0.17364,0.14412 0.24702,0.61838 0.24702,1.59472 0,1.26275 0.0319,1.38959 0.34623,1.38959 0.31337,0 0.35067,-0.14531 0.39687,-1.54358 l 0.0507,-1.54305 h 1.76423 1.76372 l 0.0512,1.54305 0.0506,1.54358 h 0.6041 0.60358 l 0.0506,-1.54358 0.0512,-1.54305 1.66088,-0.0512 c 1.20988,-0.0372 1.70044,0.0105 1.80557,0.17622 0.0793,0.12512 0.14576,0.87476 0.14676,1.66605 0.003,1.34215 0.0259,1.43275 0.34882,1.34824 0.30508,-0.0797 0.35218,-0.27157 0.39688,-1.61489 l 0.0506,-1.52445 1.6614,-0.0512 c 1.20988,-0.0372 1.69992,0.0105 1.80505,0.17622 0.0794,0.12512 0.14628,0.84288 0.14728,1.59475 l 0.003,1.36684 h 0.61082 0.61029 l 0.0512,-1.54359 0.0512,-1.54305 h 1.76372 1.76371 l 0.0512,1.54305 c 0.028,0.84887 0.12746,1.54359 0.22066,1.54359 0.0932,0 0.22898,5e-5 0.30178,0.003 0.0728,0 0.17165,-0.69368 0.22015,-1.54357 l 0.0884,-1.54512 h 1.76372 1.76423 l 0.0506,1.54358 0.0512,1.54305 h 0.60358 0.60357 l 0.0512,-1.54305 0.0512,-1.54358 1.66088,-0.0512 c 1.20987,-0.0372 1.69994,0.0105 1.80506,0.17622 0.0794,0.12512 0.14528,0.84288 0.14728,1.59475 0.002,1.23944 0.0347,1.36683 0.3483,1.36683 0.31337,0 0.35067,-0.14478 0.39687,-1.54305 l 0.0512,-1.54358 1.66089,-0.0512 c 1.20989,-0.0372 1.70044,0.0105 1.80557,0.17622 0.0794,0.12512 0.14477,0.84288 0.14677,1.59475 l 0.003,1.36684 h 0.61029 0.61082 l 0.0506,-1.54306 0.0512,-1.54358 h 1.76371 1.76425 l 0.0506,1.54358 c 0.0458,1.3873 0.0854,1.54306 0.39016,1.54306 0.30471,0 0.34435,-0.15576 0.39014,-1.54306 l 0.0506,-1.54358 h 1.76423 1.76373 l 0.0512,1.54358 0.0512,1.54306 h 0.60359 0.60358 l 0.0506,-1.54306 0.0512,-1.54358 1.57149,-0.0512 c 0.96284,-0.0315 1.64545,0.0223 1.76267,0.13954 0.10523,0.10523 0.20855,0.7633 0.22946,1.46244 0.0209,0.69914 0.041,1.33073 0.045,1.40354 0.004,0.0728 0.16321,0.13229 0.35347,0.13229 0.31337,0 0.35069,-0.14478 0.39688,-1.54306 l 0.0512,-1.54358 1.31826,-0.0527 c 1.85164,-0.0739 2.6293,0.41489 1.79576,1.12861 -0.25421,0.21751 -0.30928,0.45886 -0.25218,1.1007 0.062,0.69709 0.005,0.89447 -0.37827,1.29759 -0.25368,0.26702 -0.4078,0.59 -0.3514,0.73692 0.16624,0.4332 1.68847,1.52135 2.12803,1.52135 0.24263,0 0.793,-0.34671 1.34771,-0.84904 l 0.93794,-0.84905 -0.51729,-0.47387 c -0.47154,-0.43201 -0.50991,-0.5529 -0.43201,-1.36321 0.071,-0.73931 0.0301,-0.91825 -0.24237,-1.06403 -0.68192,-0.36497 -0.13001,-1.25823 0.91984,-1.48881 0.76895,-0.16891 0.78278,-0.39942 0.0367,-0.6072 -0.36672,-0.10215 -0.8451,-0.32485 -1.06349,-0.49453 l -0.39739,-0.30853 0.0444,-65.41098 0.0444,-65.41151 0.49816,0.39222 c 0.66641,0.52421 1.83622,0.64624 2.56728,0.2682 1.15365,-0.59657 1.59784,-2.08647 0.89039,-2.98586 -0.42314,-0.53795 -1.11885,-0.61261 -1.60508,-0.1726 -0.42694,0.38641 -0.40745,0.84927 0.0532,1.27847 0.48837,0.45499 0.31918,0.89866 -0.34262,0.89866 -0.8695,0 -1.14927,-0.50717 -1.04178,-1.88981 0.17118,-2.20209 1.96701,-16.2412 2.24016,-17.51262 0.0938,-0.43657 0.21785,-1.34973 0.27545,-2.02882 0.0576,-0.6791 0.21072,-1.82987 0.34003,-2.55747 0.12931,-0.72761 0.32684,-2.19622 0.43925,-3.26336 0.1124,-1.06716 0.31601,-2.813237 0.45217,-3.880381 1.26464,-9.911033 1.80847,-24.901832 1.31516,-36.250425 -0.1778,-4.090702 -0.91807,-13.720884 -1.23973,-16.130283 -0.0911,-0.682636 -0.24661,-2.074704 -0.34571,-3.09335 -0.15372,-1.579774 -0.3479,-3.141848 -0.63561,-5.115452 -0.0353,-0.242535 -0.14667,-1.234895 -0.24701,-2.205032 -0.10037,-0.97014 -0.25971,-2.160765 -0.3545,-2.645833 -0.24638,-1.260599 -2.28927,-17.930592 -2.28927,-18.680515 0,-0.757827 0.61777,-1.267607 1.32188,-1.090889 0.53336,0.13386 0.56638,0.466465 0.0894,0.898136 -0.46589,0.421585 -0.44794,1.059688 0.0393,1.400948 0.55046,0.385554 0.83815,0.344654 1.40611,-0.199471 0.59123,-0.566428 0.63709,-1.201228 0.15504,-2.146122 -0.63301,-1.240818 -2.17664,-1.577244 -3.36258,-0.732772 -0.27361,0.19482 -0.54476,0.3545 -0.60255,0.3545 -0.0578,0 -0.10491,-0.43035 -0.10491,-0.956013 0,-0.888198 0.0403,-0.98053 0.57309,-1.308965 0.3153,-0.194376 0.7912,-0.407969 1.05731,-0.474389 0.57244,-0.142872 0.49654,-0.3652737 -0.17725,-0.5193477 -1.1224,-0.25666 -1.62416,-1.2099604 -0.94362,-1.7926551 0.25431,-0.2177507 0.31181,-0.4415247 0.24391,-0.9477444 -0.0786,-0.5856907 -0.0249,-0.7101347 0.45941,-1.0681514 0.47852,-0.3537937 0.51675,-0.4405267 0.30179,-0.6821287 -0.41402,-0.4653607 -1.26719,-2.3223425 -1.69344,-3.6865949 l -0.4041,-1.29294304 -0.60463,1.78955374 c -0.33265,0.9842674 -0.84138,2.1701248 -1.13067,2.6354965 l -0.52607,0.8459427 0.53124,0.5312337 c 0.4421,0.4421467 0.50876,0.6144157 0.39791,1.0288774 -0.0995,0.3720067 -0.0526,0.5783247 0.18551,0.8164864 0.42096,0.4209467 0.40893,1.1399664 -0.0227,1.3709754 -0.36714,0.1965007 -2.62473,0.2517057 -3.08404,0.07545 -0.19161,-0.07353 -0.27965,-0.335823 -0.28165,-0.8376747 -0.001,-0.4019287 -0.0796,-0.8502834 -0.17362,-0.9958034 -0.1275,-0.197263 -0.17164,-0.09909 -0.17363,0.3855057 -0.001,0.357487 -0.0813,0.8565997 -0.17726,1.1089754 -0.17322,0.4556667 -0.18605,0.4584037 -1.87379,0.4082437 l -1.69963,-0.05064 -0.0413,-1.1942414 c -0.0365,-1.0610204 0.004,-1.2280824 0.36018,-1.4991331 l 0.40102,-0.304891 -0.50385,-1.4996491 C 194.61687,4.1477476 194.29606,3.1160462 194.1813,2.6794832 l -0.20877,-0.7937494 -0.22325,0.5291667 c -0.12287,0.2910417 -0.47757,1.3184441 -0.78858,2.2830628 l -0.56585,1.7538968 0.45785,0.333313 c 0.43911,0.3198707 0.61011,0.8946464 0.31936,1.0743534 -0.16951,0.1047397 -0.15107,0.8444074 0.0284,1.1348131 0.0719,0.116368 0.0816,0.29108 0.0217,0.38809 -0.15868,0.2567317 -3.31979,0.2252117 -3.58067,-0.03566 -0.11645,-0.116417 -0.21245,-0.5724777 -0.21445,-1.0138904 -0.001,-0.441413 -0.0795,-0.9215977 -0.17363,-1.0671184 -0.12069,-0.186761 -0.17164,0.05305 -0.17364,0.8159704 -0.002,0.7081727 -0.0879,1.1514974 -0.24959,1.2857094 -0.15893,0.1319007 -0.82597,0.1868047 -1.87379,0.1539957 l -1.62729,-0.05116 -0.0413,-1.1942414 c -0.0363,-1.0556284 0.005,-1.2294594 0.3545,-1.4991331 l 0.39584,-0.304891 -0.73381,-2.2902978 -0.7338,-2.2902985 -0.28732,0.7911664 c -0.15782,0.435011 -0.49444,1.4546774 -0.74828,2.2665268 l -0.46147,1.4763951 0.46044,0.4268467 c 0.32837,0.304272 0.42029,0.5133317 0.32039,0.7286367 -0.0771,0.166097 -0.14382,0.6589787 -0.14883,1.0955404 l -0.008,0.7937497 -1.69757,0.05064 c -1.91894,0.05675 -1.91116,0.06239 -1.91616,-1.5058501 -0.001,-0.4123097 -0.0818,-0.7493084 -0.1788,-0.7493084 -0.097,0 -0.17622,0.3122747 -0.17622,0.6940144 0,0.38174 -0.0787,0.9005247 -0.17466,1.1529004 -0.17323,0.4556667 -0.18605,0.4584037 -1.87379,0.4082437 l -1.69964,-0.05064 -0.0413,-1.1942414 c -0.0373,-1.0837724 -0.001,-1.2229404 0.38551,-1.5048171 l 0.42633,-0.310575 -0.44029,-1.2288651 c -0.2423,-0.6760587 -0.57009,-1.6962811 -0.72812,-2.2670438 -0.15802,-0.5707627 -0.35111,-0.9678054 -0.42891,-0.8821167 -0.0778,0.08569 -0.42654,1.1023344 -0.77515,2.2587758 l -0.63407,2.1021958 0.4346,0.4025597 c 0.42915,0.397728 0.58706,0.9487787 0.27182,0.9487787 -0.18819,0 -0.15407,0.8657754 0.047,1.1911411 0.0748,0.121026 0.0874,0.299348 0.0274,0.396358 -0.15868,0.2567317 -3.32031,0.2252117 -3.58117,-0.03566 -0.11647,-0.116417 -0.21136,-0.5481967 -0.21136,-0.9596304 0,-0.411434 -0.0792,-0.7968347 -0.17622,-0.8567947 -0.10849,-0.06705 -0.17673,0.226123 -0.17673,0.7617097 0,0.5309647 -0.096,0.9504804 -0.2465,1.0753864 -0.15893,0.1319007 -0.82649,0.1868047 -1.8743,0.1539957 l -1.62729,-0.05116 -0.0413,-1.1973424 c -0.0362,-1.0541114 0.006,-1.2341194 0.35088,-1.5053331 l 0.39171,-0.308509 -0.73381,-2.2742788 -0.73329,-2.2747945 -0.28318,0.7818634 c -0.15585,0.4298537 -0.49132,1.4453764 -0.74518,2.2572258 l -0.46147,1.4763951 0.46044,0.4268467 c 0.3316,0.307352 0.4204,0.5111527 0.31678,0.7286367 -0.0792,0.166097 -0.13169,0.6791657 -0.11679,1.1399824 l 0.0274,0.8376744 h -1.65726 c -1.89898,0 -2.02261,-0.09029 -2.02261,-1.4774281 0,-1.1991644 -0.29103,-1.1328474 -0.40205,0.09147 -0.0536,0.5908397 -0.17084,1.1474924 -0.26045,1.2371324 -0.0896,0.08964 -0.89962,0.1397217 -1.8004,0.1116217 l -1.63814,-0.05116 -0.0408,-1.1942424 c -0.0364,-1.0577794 0.004,-1.2289104 0.35657,-1.4991321 l 0.39791,-0.304891 -0.61806,-1.9404488 c -0.3399,-1.0671524 -0.68055,-2.0988548 -0.75705,-2.2928828 -0.16292,-0.4131997 -0.0859,-0.5918727 -0.95033,2.2045168 l -0.62735,2.0288148 0.43614,0.323494 c 0.48526,0.3599537 0.54136,0.6589294 0.21963,1.1740871 -0.16387,0.262407 -0.16868,0.4733307 -0.0196,0.8681647 0.25074,0.6642954 0.11736,0.7208854 -1.70429,0.7208854 -1.87058,0 -1.94045,-0.03813 -1.94045,-1.0666004 0,-0.4689657 -0.0792,-0.9017374 -0.17621,-0.9616984 -0.10848,-0.06705 -0.17622,0.226124 -0.17622,0.7617097 0,0.5309647 -0.0965,0.9504814 -0.24701,1.0753864 -0.15893,0.1319017 -0.82649,0.1868057 -1.87431,0.1539957 l -1.62677,-0.05116 -0.0413,-1.1973424 c -0.0363,-1.0569904 0.005,-1.2341424 0.35398,-1.5084341 l 0.39472,-0.312354 -0.60668,-1.9311478 c -0.33366,-1.0622264 -0.66576,-2.0821638 -0.73846,-2.2665268 -0.14377,-0.3647547 -0.1782,-0.2850487 -1.1467,2.6892405 l -0.47956,1.4727771 0.42272,0.39119 c 0.43641,0.4044567 0.45863,0.7263024 0.21394,3.0974842 -0.0348,0.3369309 0.004,0.7380529 0.0858,0.8914179 0.0834,0.154994 0.0798,0.392035 -0.008,0.533818 -0.13718,0.221956 3.42067,0.266391 27.39678,0.343131 l 27.55439,0.08837 0.0439,124.309642 0.0444,124.31024 -8.86354,0.001 c -153.881728,0.023 -183.8281491,-0.0129 -183.9603491,-0.22113 -0.0772,-0.12154 -0.14164,-55.98622 -0.14314,-124.14332 -0.002,-96.151527 0.0445,-123.969187 0.20877,-124.133421 0.16283,-0.162827 6.5748011,-0.211873 27.7874621,-0.211873 27.23347,0 27.573438,-0.0043 27.392638,-0.342099 -0.121738,-0.227478 -0.12382,-0.378445 -0.006,-0.451135 0.193259,-0.119445 0.245139,-1.1966269 0.0661,-1.3756259 -0.0611,-0.06111 -0.12972,-0.6343824 -0.151929,-1.2743401 -0.0353,-1.0164004 0.009,-1.2007684 0.345199,-1.4546911 L 64.485594,6.4847251 63.806044,4.2822753 C 63.432293,3.0710032 63.093653,2.0474918 63.053643,2.0074818 c -0.04,-0.04001 -0.2427,0.5111197 -0.45062,1.2247301 -0.207928,0.7136107 -0.544018,1.7247801 -0.746728,2.2474058 l -0.368451,0.9503304 0.445971,0.325043 c 0.40998,0.2986637 0.44287,0.4217987 0.405138,1.5192871 l -0.0413,1.1942424 -1.650539,0.05116 c -1.929972,0.05993 -2.097551,-0.05226 -2.097551,-1.4076671 0,-0.9474244 -0.2584,-1.1704354 -0.31936,-0.2754347 -0.02151,0.3152947 -0.103299,0.8117324 -0.18139,1.1027754 l -0.141588,0.5291667 h -1.72909 -1.728581 l -0.0413,-1.1942424 c -0.0376,-1.0829514 -0.0021,-1.2230514 0.383442,-1.5037841 L 55.216473,6.4609544 54.866625,5.495121 C 54.674135,4.964019 54.342514,3.9339776 54.129715,3.2063729 53.687443,1.6941348 53.768075,1.6119288 52.833675,4.5292903 l -0.62167,1.9404488 0.43512,0.323493 c 0.44068,0.3278087 0.5768,0.8909654 0.262509,1.0852054 -0.15704,0.09706 -0.149381,0.6530674 0.0181,1.3255001 0.054,0.216696 -0.20556,0.2736287 -1.433499,0.3162587 -2.203101,0.07648 -2.292893,0.03619 -2.292893,-1.0355944 0,-0.5477457 -0.068,-0.8474834 -0.176728,-0.7803134 -0.097,0.05996 -0.176221,0.4124457 -0.176221,0.7828954 0,0.9722797 -0.243909,1.0907484 -2.120799,1.0319794 l -1.627291,-0.05064 -0.0413,-1.1942414 c -0.0363,-1.0552854 0.005,-1.2300634 0.3545,-1.4996491 L 45.808822,6.4697421 45.203693,4.5292933 c -0.908441,-2.9120855 -0.8378,-2.8394245 -1.28312,-1.3229164 -0.213662,0.7276037 -0.54691,1.7571001 -0.740529,2.2871978 l -0.351912,0.9637644 0.42736,0.311092 c 0.388231,0.2828077 0.423831,0.4212947 0.386541,1.5058511 l -0.0413,1.1942414 -1.627288,0.05064 c -1.047821,0.03281 -1.71486,-0.02158 -1.87379,-0.1534787 -0.154892,-0.128541 -0.247012,-0.5543847 -0.247012,-1.1430824 0,-0.5188527 -0.091,-0.9944074 -0.203611,-1.0640184 -0.112,-0.06922 -0.157691,-0.05148 -0.101282,0.03979 0.0564,0.09127 0.009,0.6394547 -0.10491,1.2180131 L 39.235102,9.4685186 H 37.49412 35.75263 L 35.71073,8.2742772 C 35.67313,7.1894988 35.70863,7.0512918 36.09727,6.7684261 L 36.524642,6.4573351 36.177371,5.4935697 C 35.986551,4.963472 35.654242,3.9339766 35.4384,3.2063719 34.989762,1.6940148 35.071362,1.6110248 34.136672,4.5292893 l -0.621671,1.9404488 0.4346,0.323494 c 0.4432,0.3296807 0.576569,0.8911394 0.258381,1.0877884 -0.237101,0.1465377 -0.224052,0.8513364 0.02019,1.0955391 0.410421,0.41041 -0.0582,0.5798097 -1.60351,0.5798097 -2.067478,0 -2.12081,-0.02658 -2.12081,-1.0666014 0,-1.0472554 -0.245219,-1.2848571 -0.31419,-0.3043737 -0.0935,1.3296351 -0.189648,1.3902111 -2.09858,1.3332511 l -1.687702,-0.05395 -0.0413,-1.1942414 c -0.0363,-1.0566574 0.005,-1.2297134 0.355531,-1.4996491 L 27.11347,6.4657051 26.42255,4.2715243 C 26.04263,3.0645662 25.70394,2.0486098 25.66963,2.0142998 c -0.0343,-0.03431 -0.38729,0.9534314 -0.78445,2.1946965 l -0.72192,2.2567088 0.41083,0.304891 c 0.3684,0.2735137 0.40629,0.4289817 0.36948,1.4996491 l -0.0408,1.1942414 -1.62729,0.05064 c -1.04781,0.03281 -1.71537,-0.02158 -1.8743,-0.1534787 -0.14977,-0.124294 -0.2465,-0.5435227 -0.2465,-1.0655674 0,-0.4731897 -0.0797,-0.8604127 -0.17673,-0.8604127 -0.097,0 -0.17622,0.387223 -0.17622,0.8604127 0,0.5220447 -0.0973,0.9412734 -0.24701,1.0655674 -0.1593,0.1322007 -0.83151,0.1863587 -1.89601,0.1534787 -1.35944,-0.042 -1.63853,-0.09715 -1.5875,-0.3152257 0.13287,-0.5678597 0.12955,-1.2593674 -0.007,-1.3435871 -0.28941,-0.178863 -0.1311,-0.7527727 0.29456,-1.0671174 l 0.437671,-0.323491 -0.72295,-2.2897815 -0.72347,-2.2897818 -0.31264,0.8784984 c -0.17184,0.4832587 -0.51819,1.5136711 -0.76998,2.2897818 l -0.45785,1.4112831 0.43821,0.323494 c 0.42915,0.3166117 0.58444,0.8885054 0.29042,1.0702184 -0.0815,0.05035 -0.11587,0.4520047 -0.0765,0.8924514 l 0.0713,0.8004674 h -1.75338 -1.75338 l -0.110593,-0.550871 c -0.0606,-0.3031677 -0.11007,-0.8719064 -0.11007,-1.2640041 0,-0.9420644 -0.18545,-0.7270777 -0.297141,0.3446807 -0.14637,1.4046891 -0.22651,1.4701941 -1.7926501,1.4701941 -1.11879,0 -1.43967,-0.06356 -1.74253,-0.3457157 -0.42963,-0.4002557 -0.35939,-0.9805394 0.15193,-1.2541854 0.24357,-0.1303557 0.30306,-0.2938267 0.22324,-0.6118484 -0.16638,-0.6629017 0.0487,-1.2329104 0.55139,-1.4619264 L 9.3535169,5.6714387 8.9173669,5.098347 C 8.4060769,4.4268033 7.7193269,2.8437332 7.2916269,1.3502581 Z M 6.0920669,18.966233 c 0.0211,5.56e-4 0.044,0.0083 0.0682,0.02325 0.11695,0.07228 0.17673,17.84661 0.17673,52.750784 0,34.976773 -0.0595,52.641143 -0.17673,52.641143 -0.097,0 -0.1773,-0.13874 -0.1788,-0.30851 -0.001,-0.16978 -0.40158,-3.40414 -0.88884,-7.18767 -0.48726,-3.78355 -1.00199,-7.83167 -1.1436,-8.99584 -0.1416,-1.16417 -0.3767,-2.91076 -0.52296,-3.8809 -0.14627,-0.97014 -0.34091,-2.51795 -0.43254,-3.43958 -0.0916,-0.921617 -0.3246,-3.104075 -0.51728,-4.850313 -0.4929801,-4.467856 -0.8640501,-9.47611 -1.0981201,-14.81661 -0.2263,-5.16311 -0.1115,-19.697243 0.19017,-24.077087 0.25189,-3.65707 0.8621001,-10.503413 1.0836501,-12.159464 0.0982,-0.733822 0.21998,-1.731333 0.27079,-2.216404 0.15746,-1.503264 0.92991,-7.144237 1.38906,-10.142532 0.14113,-0.921631 0.37299,-2.62785 0.51521,-3.792016 0.14222,-1.164167 0.46091,-3.697467 0.70797,-5.629632 0.24706,-1.932162 0.44907,-3.623837 0.44907,-3.758943 0,-0.101275 0.0448,-0.161332 0.108,-0.15968 z M 204.05363,19.077338 c 0.14053,0.246782 0.48957,2.657007 0.89451,6.173782 0.095,0.824619 0.2562,2.055103 0.35813,2.734201 0.21628,1.440826 0.88609,6.349686 1.51462,11.100615 0.24301,1.836796 0.46943,3.384611 0.50283,3.439584 0.0334,0.05497 0.11283,0.814109 0.17672,1.687234 0.0639,0.873125 0.22827,2.452701 0.36535,3.509862 0.13709,1.057162 0.32991,3.121083 0.4284,4.586285 0.0985,1.465199 0.2794,4.012951 0.40204,5.662187 0.30457,4.093935 0.30157,22.246019 -0.004,26.282119 -0.12492,1.64924 -0.30553,4.149549 -0.40153,5.556243 -0.096,1.406691 -0.2541,3.152762 -0.3514,3.880356 -0.0972,0.727607 -0.2881,2.474178 -0.42426,3.880869 -0.13613,1.406691 -0.41371,3.827275 -0.61702,5.379495 -0.61596,4.70258 -1.73267,13.39967 -2.12906,16.5809 -0.2055,1.64924 -0.41296,3.31291 -0.46096,3.69745 -0.048,0.38453 -0.15868,0.82145 -0.24598,0.97048 -0.0942,0.16094 -0.15916,-21.18315 -0.15916,-52.557433 0,-29.291702 0.0674,-52.710931 0.15089,-52.564229 z"
       id="path1293"
       inkscape:connector-curvature="0" />
  </g>
</svg>
